<?xml version="1.0" encoding="UTF-8" standalone="no"?>
<svg
   xmlns:dc="http://purl.org/dc/elements/1.1/"
   xmlns:cc="http://creativecommons.org/ns#"
   xmlns:rdf="http://www.w3.org/1999/02/22-rdf-syntax-ns#"
   xmlns:svg="http://www.w3.org/2000/svg"
   xmlns="http://www.w3.org/2000/svg"
   xmlns:sodipodi="http://sodipodi.sourceforge.net/DTD/sodipodi-0.dtd"
   xmlns:inkscape="http://www.inkscape.org/namespaces/inkscape"
   width="200"
   height="200"
   viewBox="0 0 200 200"
   id="svg13430"
   version="1.1"
   inkscape:version="0.91 r13725"
   sodipodi:docname="catalogIcon-docker-registry.svg">
  <metadata
     id="metadata13444">
    <rdf:RDF>
      <cc:Work
         rdf:about="">
        <dc:format>image/svg+xml</dc:format>
        <dc:type
           rdf:resource="http://purl.org/dc/dcmitype/StillImage" />
        <dc:title>docker</dc:title>
      </cc:Work>
    </rdf:RDF>
  </metadata>
  <defs
     id="defs13442" />
  <sodipodi:namedview
     pagecolor="#ffffff"
     bordercolor="#666666"
     borderopacity="1"
     objecttolerance="10"
     gridtolerance="10"
     guidetolerance="10"
     inkscape:pageopacity="0"
     inkscape:pageshadow="2"
     inkscape:window-width="1567"
     inkscape:window-height="1067"
     id="namedview13440"
     showgrid="false"
     inkscape:zoom="1.18"
     inkscape:cx="79.699746"
     inkscape:cy="269.49153"
     inkscape:window-x="986"
     inkscape:window-y="467"
     inkscape:window-maximized="0"
     inkscape:current-layer="svg13430" />
  <title
     id="title13432">docker</title>
  <g
     id="g13434"
     transform="translate(4.2372881,-27.966102)"
     style="fill:#09b7ed;fill-rule:evenodd">
    <path
       d="m 12.523,80.56 20.134,0 0,19.577 -20.134,0 0,-19.577 z m 24.71,0 20.134,0 0,19.577 -20.134,0 0,-19.577 z m 0,-25.093 20.134,0 0,19.566 -20.134,0 0,-19.566 z m 24.7,25.093 20.144,0 0,19.577 -20.144,0 0,-19.577 z m 0,-25.093 20.144,0 0,19.566 -20.144,0 0,-19.566 z m 24.71,25.093 20.14,0 0,19.577 -20.14,0 0,-19.577 z m 0,-25.093 20.14,0 0,19.566 -20.14,0 0,-19.566 z m 24.707,25.093 20.14,0 0,19.577 -20.14,0 0,-19.577 z m -24.707,-50.2 20.14,0 0,19.573 -20.14,0 0,-19.573 z M 40.647,128.4 c -3.1,0 -5.614,2.443 -5.614,5.453 0,3.007 2.517,5.45 5.614,5.45 3.093,0 5.61,-2.44 5.61,-5.446 0,-3.01 -2.517,-5.457 -5.61,-5.457 z"
       id="path13436"
       inkscape:connector-curvature="0" />
    <path
       d="m 196.35,90.687 c -6.767,-3.794 -15.767,-4.314 -23.433,-2.12 -0.944,-7.924 -6.3,-14.867 -12.667,-19.844 l -2.527,-1.976 -2.126,2.386 c -4.267,4.794 -5.534,12.767 -4.957,18.887 0.433,4.5 1.883,9.073 4.733,12.687 -2.166,1.266 -4.626,2.273 -6.816,3 -4.467,1.466 -9.317,2.283 -14.034,2.283 l -132.48,0 -0.283,2.967 c -0.95,9.906 0.447,19.823 4.66,28.866 l 1.813,3.594 0.207,0.333 c 12.457,20.567 34.333,29.227 58.173,29.227 46.154,0 84.217,-20.034 101.7,-62.36 11.684,0.593 23.634,-2.767 29.35,-13.61 l 1.457,-2.767 -2.773,-1.553 0.003,0 z m -155.7,53.52 c -5.88,0 -10.66,-4.647 -10.66,-10.354 0,-5.71 4.78,-10.356 10.657,-10.356 5.876,0 10.656,4.643 10.656,10.353 0,5.707 -4.776,10.353 -10.653,10.353 l 0,0.004 z"
       id="path13438"
       inkscape:connector-curvature="0" />
  </g>
  <text
     xml:space="preserve"
     style="font-style:normal;font-weight:normal;font-size:40px;line-height:125%;font-family:sans-serif;letter-spacing:0px;word-spacing:0px;fill:#09b7ed;fill-opacity:1;stroke:none;stroke-width:1px;stroke-linecap:butt;stroke-linejoin:miter;stroke-opacity:1"
     x="30.815912"
     y="182.2034"
     id="text13500"
     sodipodi:linespacing="125%"><tspan
       sodipodi:role="line"
       id="tspan13502"
       x="30.815912"
       y="182.2034"
       style="font-style:normal;font-variant:normal;font-weight:normal;font-stretch:normal;font-family:'Yuanti SC';-inkscape-font-specification:'Yuanti SC';fill:#09b7ed;fill-opacity:1">Registry</tspan></text>
</svg>
